#define altitude2_icon_width 59
#define altitude2_icon_height 40
#define altitude2_icon_x_hot 0
#define altitude2_icon_y_hot 0
static unsigned char altitude2_icon_bits[] = {
   0x00, 0x00, 0x00, 0x00, 0x00, 0x00, 0x00, 0x00, 0x00, 0x00, 0x00, 0x00,
   0x0c, 0x00, 0x00, 0x00, 0x00, 0x00, 0x00, 0x00, 0x1e, 0x00, 0x00, 0x00,
   0x00, 0x00, 0x00, 0x00, 0x1f, 0x00, 0x00, 0x00, 0x00, 0x00, 0x00, 0x00,
   0x3b, 0x00, 0x00, 0x00, 0x00, 0x00, 0x30, 0x80, 0x33, 0x00, 0x00, 0x00,
   0x00, 0x00, 0x78, 0xc0, 0x71, 0xc0, 0x01, 0x00, 0x00, 0x00, 0xf8, 0xc0,
   0xe0, 0xe0, 0x03, 0x00, 0x00, 0x00, 0xdc, 0xe1, 0xe0, 0xf0, 0x07, 0x00,
   0x00, 0x00, 0x8e, 0x63, 0x40, 0xf8, 0x0f, 0x00, 0x00, 0x00, 0x06, 0x73,
   0x00, 0xfc, 0x1f, 0x00, 0x00, 0x00, 0x07, 0x37, 0x00, 0xde, 0x3d, 0x00,
   0x00, 0x80, 0x03, 0x3e, 0x00, 0xcf, 0x79, 0x00, 0x00, 0x80, 0x01, 0x1c,
   0x00, 0xc7, 0x71, 0x00, 0x00, 0xc0, 0x01, 0x1c, 0x00, 0xc3, 0x61, 0x00,
   0x00, 0xc0, 0x00, 0x08, 0x00, 0xc0, 0x01, 0x00, 0x00, 0xe0, 0x00, 0x00,
   0x00, 0xc0, 0x01, 0x00, 0x00, 0x60, 0x00, 0x00, 0x00, 0xc0, 0x01, 0x00,
   0x00, 0x30, 0x00, 0x00, 0x00, 0xc0, 0x01, 0x00, 0x00, 0x38, 0x00, 0x00,
   0x00, 0xc0, 0x01, 0x00, 0x00, 0x18, 0x00, 0x00, 0x00, 0xc0, 0x01, 0x00,
   0x00, 0x1c, 0x00, 0x00, 0x00, 0xc0, 0x01, 0x00, 0x00, 0x0c, 0x00, 0x00,
   0x00, 0xc0, 0x01, 0x00, 0x00, 0x06, 0x00, 0x00, 0x00, 0xc0, 0x01, 0x00,
   0x00, 0x07, 0x00, 0x00, 0x00, 0xc0, 0x01, 0x00, 0x00, 0x03, 0x00, 0x00,
   0x00, 0xc0, 0x01, 0x00, 0x80, 0x03, 0x00, 0x00, 0x00, 0xc0, 0x01, 0x00,
   0x80, 0x01, 0x00, 0x00, 0x00, 0xc0, 0x01, 0x00, 0xc0, 0x00, 0x00, 0x00,
   0x00, 0xc0, 0x00, 0x00, 0xe0, 0x00, 0x00, 0x00, 0x00, 0x00, 0x18, 0x00,
   0x60, 0x00, 0x00, 0x00, 0x00, 0x00, 0x38, 0x00, 0x70, 0x00, 0x00, 0x00,
   0x00, 0x00, 0x70, 0x00, 0x38, 0x00, 0x00, 0x00, 0x00, 0x00, 0x70, 0x00,
   0x18, 0x00, 0x00, 0x00, 0x00, 0x00, 0xe0, 0x00, 0x1c, 0x00, 0x00, 0x00,
   0x00, 0x00, 0xe0, 0x00, 0x0c, 0x00, 0x00, 0x00, 0x00, 0x00, 0xc0, 0x01,
   0x0e, 0x00, 0x00, 0x00, 0x00, 0x00, 0x80, 0x03, 0x06, 0x00, 0x00, 0x00,
   0x00, 0x00, 0x00, 0x03, 0xff, 0xff, 0xff, 0xff, 0xff, 0xff, 0xff, 0x07,
   0xff, 0xff, 0xff, 0xff, 0xff, 0xff, 0xff, 0x07 };
