#define check_icon_width 15
#define check_icon_height 13
#define check_icon_x_hot 0
#define check_icon_y_hot 0
static unsigned char check_icon_bits[] = {
   0x00, 0x00, 0x00, 0x30, 0x00, 0x38, 0x00, 0x1c, 0x00, 0x0e, 0x00, 0x07,
   0x86, 0x03, 0xce, 0x01, 0xfc, 0x00, 0xf8, 0x00, 0x70, 0x00, 0x20, 0x00,
   0x00, 0x00 };
