#define sat_icon_full_width 50
#define sat_icon_full_height 50
#define sat_icon_full_x_hot 0
#define sat_icon_full_y_hot 0
static unsigned char sat_icon_full_bits[] = {
   0x00, 0x00, 0x00, 0x00, 0x00, 0x00, 0x00, 0x00, 0x00, 0x00, 0x00, 0x00,
   0x00, 0x00, 0x00, 0x00, 0x00, 0x00, 0x00, 0x00, 0x00, 0x00, 0x00, 0x00,
   0x00, 0x00, 0x00, 0x00, 0x00, 0x0e, 0x00, 0x00, 0x00, 0x00, 0x00, 0x00,
   0x1f, 0x00, 0x00, 0x00, 0x00, 0x00, 0x80, 0x33, 0x00, 0x00, 0x00, 0x00,
   0x00, 0xc0, 0x61, 0x00, 0x00, 0x00, 0x00, 0x00, 0xe0, 0xc0, 0x00, 0x00,
   0x00, 0x00, 0x00, 0xe0, 0x80, 0x03, 0x00, 0x00, 0x00, 0x00, 0x70, 0x00,
   0x07, 0x00, 0x00, 0x00, 0x00, 0x38, 0x00, 0x0e, 0x00, 0x00, 0x00, 0x00,
   0x1c, 0x00, 0x0c, 0x00, 0x00, 0x00, 0x00, 0x30, 0x00, 0x0c, 0x00, 0x00,
   0x00, 0x00, 0x60, 0x00, 0x18, 0x00, 0x00, 0x00, 0x00, 0xc0, 0x01, 0x18,
   0x00, 0x00, 0x00, 0x00, 0x80, 0x03, 0x18, 0x04, 0x00, 0x00, 0x00, 0x00,
   0x06, 0x3c, 0x1e, 0x00, 0x00, 0x00, 0x00, 0x3c, 0x1e, 0x3f, 0x00, 0x00,
   0x00, 0x00, 0xf8, 0x0f, 0x7f, 0x00, 0x00, 0x00, 0x00, 0xe0, 0x87, 0x7f,
   0x00, 0x00, 0x00, 0x00, 0x00, 0xc0, 0x7f, 0x00, 0x00, 0x00, 0x00, 0x00,
   0xe0, 0x3f, 0x00, 0x00, 0x00, 0x00, 0x00, 0xf0, 0x1f, 0x00, 0x00, 0x00,
   0x00, 0x00, 0xf0, 0x0f, 0x00, 0x00, 0x00, 0x00, 0x00, 0xf8, 0x87, 0x1f,
   0x00, 0x00, 0x00, 0x00, 0xf8, 0xc3, 0x7f, 0x00, 0x00, 0x00, 0x00, 0xe0,
   0xe3, 0xf9, 0x00, 0x00, 0x00, 0x00, 0xc0, 0xf1, 0x80, 0x01, 0x00, 0x00,
   0x70, 0x00, 0x60, 0x00, 0x07, 0x00, 0x00, 0xe0, 0x00, 0x60, 0x00, 0x0e,
   0x00, 0x00, 0xc3, 0x01, 0x60, 0x00, 0x18, 0x00, 0x00, 0x87, 0x03, 0xc0,
   0x00, 0x30, 0x00, 0x10, 0x06, 0x07, 0xc0, 0x00, 0x60, 0x00, 0x38, 0x0c,
   0x1e, 0xc0, 0x01, 0x70, 0x00, 0x70, 0x1c, 0x3c, 0x80, 0x03, 0x38, 0x00,
   0x70, 0x38, 0x10, 0x00, 0x07, 0x1c, 0x00, 0xe0, 0xf0, 0x00, 0x00, 0x0c,
   0x1c, 0x00, 0xc0, 0xc1, 0x01, 0x00, 0x18, 0x0e, 0x00, 0x80, 0x83, 0x07,
   0x00, 0x30, 0x07, 0x00, 0x00, 0x07, 0x0e, 0x00, 0xe0, 0x03, 0x00, 0x00,
   0x1e, 0x04, 0x00, 0xc0, 0x01, 0x00, 0x00, 0x3c, 0x00, 0x00, 0x00, 0x00,
   0x00, 0x00, 0xf8, 0x00, 0x00, 0x00, 0x00, 0x00, 0x00, 0xe0, 0x03, 0x00,
   0x00, 0x00, 0x00, 0x00, 0xc0, 0x03, 0x00, 0x00, 0x00, 0x00, 0x00, 0x00,
   0x01, 0x00, 0x00, 0x00, 0x00, 0x00, 0x00, 0x00, 0x00, 0x00, 0x00, 0x00,
   0x00, 0x00, 0x00, 0x00, 0x00, 0x00, 0x00, 0x00, 0x00, 0x00, 0x00, 0x00,
   0x00, 0x00 };
