#define temperature_icon_interno_width 10
#define temperature_icon_interno_height 23
#define temperature_icon_interno_x_hot 0
#define temperature_icon_interno_y_hot 0
static unsigned char temperature_icon_interno_bits[] = {
   0x00, 0x00, 0x00, 0x00, 0x00, 0x00, 0x78, 0x00, 0xcc, 0x00, 0x84, 0x00,
   0x84, 0x00, 0x84, 0x00, 0x84, 0x00, 0x84, 0x00, 0x84, 0x00, 0x84, 0x00,
   0x84, 0x00, 0x84, 0x00, 0x86, 0x01, 0x03, 0x03, 0x01, 0x02, 0x01, 0x02,
   0x01, 0x02, 0x01, 0x02, 0x03, 0x03, 0xfe, 0x01, 0x78, 0x00 };
