#define temperature_icon_width 10
#define temperature_icon_height 23
#define temperature_icon_x_hot 0
#define temperature_icon_y_hot 0
static unsigned char temperature_icon_bits[] = {
   0x00, 0x00, 0x00, 0x00, 0x00, 0x00, 0x78, 0x00, 0xcc, 0x00, 0x84, 0x00,
   0x84, 0x00, 0x84, 0x00, 0x84, 0x00, 0xb4, 0x00, 0xb4, 0x00, 0xb4, 0x00,
   0xb4, 0x00, 0xb4, 0x00, 0xb6, 0x01, 0x33, 0x03, 0x79, 0x02, 0x79, 0x02,
   0x79, 0x02, 0x79, 0x02, 0x03, 0x03, 0xfe, 0x01, 0x78, 0x00 };
