#define temperature_icon_esterno_width 10
#define temperature_icon_esterno_height 23
#define temperature_icon_esterno_x_hot 0
#define temperature_icon_esterno_y_hot 0
static unsigned char temperature_icon_esterno_bits[] = {
   0x00, 0x00, 0x00, 0x00, 0x00, 0x00, 0x00, 0x00, 0x00, 0x00, 0x00, 0x00,
   0x00, 0x00, 0x00, 0x00, 0x00, 0x00, 0x30, 0x00, 0x30, 0x00, 0x30, 0x00,
   0x30, 0x00, 0x30, 0x00, 0x30, 0x00, 0x30, 0x00, 0x78, 0x00, 0x78, 0x00,
   0x78, 0x00, 0x78, 0x00, 0x00, 0x00, 0x00, 0x00, 0x00, 0x00 };
